ply
format ascii 1.0
element vertex 17
property float32 x
property float32 y
property float32 z
element face 30
property list uint8 int32 vertex_indices
end_header
-0.27 0 0
-0.4 0.4 0
-0.3 0.46 0
0 0.5 0
0.3 0.46 0
0.4 0.4 0
0.27 0 0
0 0 0.7
-0.05 0 0.7
-0.1 0.025 0.7
-0.1 0.1 0.7
-0.05 0.15 0.7
0 0.15 0.7
0.05 0.15 0.7
0.1 0.1 0.7
0.1 0.025 0.7
0.05 0 0.7
3 8 9 0
3 9 1 0
3 9 10 1
3 10 2 1
3 10 3 2
3 10 11 3
3 12 3 11
3 13 3 12
3 14 3 13
3 14 4 3
3 14 5 4
3 15 5 14
3 15 6 5
3 16 6 15
3 7 9 8
3 7 10 9
3 7 11 10
3 7 12 11
3 7 13 12
3 7 14 13
3 7 15 14
3 7 16 15
3 5 6 0
3 5 0 4
3 4 0 3
3 3 0 2
3 2 0 1
3 2 0 1
3 16 0 6
3 16 8 0
