ply
format ascii 1.0
element vertex 26
property float32 x
property float32 y
property float32 z
element face 50
property list uint8 int32 vertex_indices
end_header
0 0 0
-0.2 0 0
-0.3 0 -0.8
-0.4 0.3 -0.8
-0.5 0.8 -0.8
-0.4 0.9 -0.8
-0.2 1 -0.8
0 1 -0.8
0.2 1 -0.8
0.4 0.9 -0.8
0.5 0.8 -0.8
0.4 0.3 -0.8
0.3 0 -0.8
0.2 0 0
-0.4 0.6 0
-0.4 0.7 -0.1
-0.37 0.8 -0.2
-0.2 0.9 -0.3
0 0.9 -0.3
0.2 0.9 -0.3
0.37 0.8 -0.2
0.4 0.7 -0.1
0.4 0.6 0
0 0.7 0
-0.3 0.66 0
0.3 0.66 0
3 0 14 1
3 0 24 14
3 0 23 24
3 0 25 23
3 0 22 25
3 0 13 22
3 14 24 15
3 24 16 15
3 24 17 16
3 24 18 17
3 24 23 18
3 23 25 18
3 25 19 18
3 25 20 19
3 25 21 20
3 25 22 21
3 1 3 2
3 1 14 3
3 14 4 3
3 14 15 4
3 15 16 4
3 16 5 4
3 16 17 5
3 17 6 5
3 17 7 6
3 17 18 7
3 18 19 7
3 19 8 7
3 19 9 8
3 19 20 9
3 20 10 9
3 21 10 20
3 22 10 21
3 11 10 22
3 13 11 22
3 13 12 11
3 12 2 11
3 2 3 11
3 11 4 10
3 11 3 4
3 10 4 9
3 9 4 5
3 9 7 8
3 9 6 7
3 9 5 6
3 5 6 9
3 0 1 2
3 0 2 12
3 0 12 13
3 13 0 12
